<svg xmlns="http://www.w3.org/2000/svg" xmlns:xlink="http://www.w3.org/1999/xlink" width="350" height="350"><g fill="#000"><path d="M286.869 348.156H59.343c-9.204 0-16.692-7.488-16.692-16.688V14.748c0-9.204 7.488-16.692 16.692-16.692h184.09c.202.012.498.012.751.043h0c.027.004.031.004.039.004.019 0 .027.004.035 0a.1.1 0 0 0 .023.004c.148.019.292.047.44.078a5.79 5.79 0 0 1 2.735 1.455h0l.023.023 54.316 52.297c.012.012.023.012.019.016.012.008.031-.004.019.016l.019.012a5.79 5.79 0 0 1 1.525 2.645h0c.016.016.004.023.008.027h0a4.83 4.83 0 0 1 .101.478h0l.004.012a5.63 5.63 0 0 1 .074.98v275.323a16.72 16.72 0 0 1-16.696 16.688zM59.343 9.597a5.16 5.16 0 0 0-5.15 5.15v316.72c0 2.836 2.311 5.146 5.15 5.146h227.526c2.84 0 5.15-2.311 5.15-5.146V61.894h-37.628c-9.2 0-16.688-7.488-16.688-16.692V9.597H59.343zm189.902 7.796v27.81c0 2.84 2.311 5.15 5.146 5.15h29.086l-34.232-32.96zm-32.933 314.752a5.53 5.53 0 0 1-.44-.016 5.79 5.79 0 0 1-4.738-3.205l-5.045-10.231-11.335-1.241c-2.031-.222-3.789-1.498-4.629-3.353a5.77 5.77 0 0 1 .529-5.691l18.042-25.771c-6.364-6.718-9.927-15.56-9.927-24.958 0-20.08 16.338-36.418 36.422-36.418s36.418 16.334 36.418 36.418c0 9.402-3.563 18.24-9.927 24.958l18.046 25.771a5.76 5.76 0 0 1-4.1 9.044l-11.339 1.241-5.041 10.231a5.78 5.78 0 0 1-9.904.759L235.19 309.47l-14.152 20.212a5.77 5.77 0 0 1-4.726 2.462zM205.7 307.038l4.792.525a5.78 5.78 0 0 1 4.551 3.186l2.136 4.33 13.288-18.979c2.155-3.081 7.298-3.081 9.453 0l13.288 18.975 2.132-4.326c.871-1.77 2.587-2.972 4.551-3.186l4.792-.525-15.354-21.932a5.77 5.77 0 0 1 1.167-7.854c6.084-4.765 9.573-11.9 9.573-19.578 0-13.716-11.16-24.877-24.877-24.877s-24.88 11.16-24.88 24.877c0 7.679 3.489 14.813 9.573 19.578 2.416 1.891 2.929 5.337 1.167 7.854L205.7 307.038zm-34.178-78.037H83.34a5.77 5.77 0 0 1-5.773-5.773c0-3.186 2.583-5.773 5.773-5.773h88.179c3.186 0 5.773 2.583 5.773 5.773a5.77 5.77 0 0 1-5.769 5.773zm95.795-38.476H83.34a5.77 5.77 0 0 1-5.773-5.773c0-3.186 2.583-5.773 5.773-5.773h183.974c3.186 0 5.773 2.583 5.773 5.773a5.77 5.77 0 0 1-5.769 5.773z"/><use xlink:href="#B"/><use xlink:href="#B" y="-38.472"/><path d="M171.522 75.109H83.34a5.77 5.77 0 1 1 0-11.546h88.179c3.186 0 5.773 2.583 5.773 5.773a5.77 5.77 0 0 1-5.769 5.773z"/></g><defs ><path id="B" d="M267.317 152.053H83.34a5.77 5.77 0 1 1 0-11.546h183.974c3.186 0 5.773 2.583 5.773 5.773a5.77 5.77 0 0 1-5.769 5.773z"/></defs></svg>