<svg xmlns="http://www.w3.org/2000/svg" viewBox="3 3 16 16"><g transform="translate(-10.994 -2071.68) scale(1.99997)" fill="#da4453"><rect y="1037.36" x="7" height="8" width="8" fill="#32c671" rx="4"/><path d="M13.577 1040.285l-.483-.483a.329.329 0 0 0-.241-.1.329.329 0 0 0-.242.1l-2.33 2.334-1.045-1.048a.329.329 0 0 0-.241-.1.329.329 0 0 0-.242.1l-.483.483a.329.329 0 0 0-.1.242c0 .094.034.175.1.241l1.286 1.286.483.483c.066.067.147.1.242.1a.329.329 0 0 0 .241-.1l.483-.483 2.572-2.572a.33.33 0 0 0 .1-.241.329.329 0 0 0-.1-.242" fill="#fff" stroke="none" stroke-width="9.512"/></g></svg>