<svg xmlns="http://www.w3.org/2000/svg" width="350" height="350"><path d="M345.849 334.844l-47.05-46.563c4.59-7.589 5.714-16.992 2.645-25.546l-5.734-15.953c3.804-11.386 1.218-24.453-7.831-33.505L163.147 88.549l1.35-1.35c6.057-6.057 6.057-15.906 0-21.963l-12.265-12.265c-6.057-6.057-15.906-6.057-21.963 0l-17.248 17.248-16.144-16.143 17.248-17.248c6.057-6.057 6.057-15.906 0-21.963L101.86 2.599c-6.057-6.057-15.906-6.057-21.963 0L2.595 79.897c-6.057 6.057-6.057 15.906 0 21.963l12.265 12.265a15.41 15.41 0 0 0 10.981 4.551 15.42 15.42 0 0 0 10.981-4.547l17.248-17.248 16.144 16.144-17.248 17.248c-6.057 6.057-6.057 15.906 0 21.963l12.265 12.265c3.026 3.026 7.002 4.544 10.981 4.544s7.951-1.513 10.981-4.544l1.35-1.35 37.714 37.714 28.938 28.934 58.082 58.082c6.372 6.372 14.735 9.554 23.107 9.554 3.52 0 7.029-.599 10.398-1.723l15.961 5.738a29.66 29.66 0 0 0 10.021 1.735c5.224 0 10.379-1.397 14.926-3.999l47.213 46.723a7.75 7.75 0 0 0 5.473 2.248c2.007 0 4.007-.77 5.532-2.307a7.79 7.79 0 0 0-.058-11.005zM25.865 103.121L13.6 90.894l77.275-77.271 12.246 12.203-22.683 22.694c-.019.019-.047.035-.066.054L48.575 80.372c-.051.051-.082.109-.132.163l-22.578 22.585zm60.007-38.044l16.144 16.144-20.796 20.796-16.144-16.144 20.796-20.796zM63.972 141.27l77.279-77.275 12.246 12.203-6.831 6.835c-.008.008-.016.012-.019.016s-.012.016-.016.019l-63.376 63.407c-.066.062-.144.105-.21.171s-.109.144-.171.21l-6.636 6.64-12.265-12.226zm160.307 135.605l-23.64-23.64 26.296-26.3a7.78 7.78 0 0 0-11.001-11.001l-26.296 26.3-17.937-17.937 39.822-39.818a7.78 7.78 0 0 0-11.001-11.001L160.7 213.297l-17.937-17.933 26.296-26.3a7.78 7.78 0 0 0-11.001-11.001l-26.296 26.3L99.55 152.15l52.597-52.597 124.729 124.733a17 17 0 0 1 5.01 12.102c0 4.575-1.778 8.869-5.01 12.102l-28.389 28.389a17 17 0 0 1-12.102 5.01 17.03 17.03 0 0 1-12.106-5.014zm43.724 9.927l-5.473-1.968 22.305-22.305 1.964 5.465c1.859 5.178.548 11.032-3.338 14.922l-.541.541c-3.89 3.898-9.76 5.201-14.918 3.345z"/></svg>