<svg id="Capa_1" enable-background="new 0 0 512 512" height="512" viewBox="0 0 512 512" width="512" xmlns="http://www.w3.org/2000/svg"><g><g><path d="m240.939 287.474v219.44c0 2.808 2.277 5.085 5.085 5.085h20.341c2.808 0 5.085-2.277 5.085-5.085v-219.44z" fill="#7e8a94"/></g><path d="m271.449 287.474h-30.511l-.189 219.435c-.002 2.81 2.275 5.089 5.085 5.089h9.149v-179.868c0-2.801 2.267-5.073 5.068-5.079l11.398-.024z" fill="#5f6c76"/><path d="m308.792 304.02-104.969.216c-5.883.012-11.529-2.311-15.697-6.456l-74.377-73.982c-4.168-4.145-6.516-9.776-6.528-15.651l-.217-104.842c-.012-5.875 2.313-11.515 6.464-15.678l74.071-74.287c4.151-4.163 9.788-6.509 15.67-6.52l104.969-.216c5.883-.012 11.529 2.311 15.697 6.456l74.377 73.982c4.168 4.145 6.516 9.776 6.528 15.651l.217 104.842c.012 5.875-2.313 11.515-6.464 15.678l-74.071 74.287c-4.151 4.162-9.789 6.507-15.67 6.52z" fill="#d82f3d"/><path d="m203.775 310.838c-7.665 0-14.88-2.976-20.314-8.38l-74.377-73.983c-5.449-5.42-8.46-12.635-8.475-20.315l-.216-104.841c-.015-7.682 2.965-14.909 8.391-20.351l74.071-74.288c5.427-5.442 12.65-8.448 20.341-8.464l104.968-.216c7.727 0 14.941 2.976 20.374 8.38l74.377 73.983c5.449 5.42 8.46 12.635 8.475 20.315l.217 104.841c.015 7.682-2.965 14.909-8.391 20.351l-74.071 74.288c-5.427 5.442-12.65 8.448-20.341 8.464l-104.969.217h-.061zm-.552-297.416c-4.159.008-8.066 1.634-11 4.578l-74.071 74.287c-2.934 2.941-4.546 6.85-4.537 11.005l.217 104.841c.009 4.155 1.635 8.056 4.583 10.986l74.376 73.983c2.939 2.922 6.842 4.532 10.987 4.532l105.001-.217c4.159-.008 8.066-1.634 11-4.578l74.071-74.287c2.934-2.942 4.546-6.85 4.537-11.005l-.217-104.841c-.009-4.155-1.635-8.056-4.583-10.986l-74.377-73.983c-2.939-2.922-6.842-4.532-10.987-4.532h-.032z" fill="#eaeaea"/><path d="m333.651 288.277-9.194 9.224c-4.15 4.165-9.784 6.511-15.662 6.521l-104.969.214c-5.889.01-11.533-2.306-15.703-6.46l-74.376-73.982c-4.17-4.144-6.519-9.772-6.529-15.643l-.214-104.842c-.01-5.882 2.309-11.519 6.468-15.684l9.296-9.325.02 10.778.193 103.329c.01 5.871 2.36 11.499 6.529 15.643l74.376 73.982c4.17 4.155 9.814 6.47 15.703 6.46l103.281-.193z" fill="#c42330"/><path d="m335.746 288.277-11.442.02-4.526 4.541c-2.939 2.946-6.845 4.572-11.004 4.582l-105 .214c-4.139 0-8.045-1.605-10.984-4.531l-74.376-73.982c-2.949-2.935-4.577-6.837-4.587-10.991l-.214-104.842c-.01-4.155 1.607-8.055 4.536-11.001l4.638-4.652-.02-10.229c-.01-4.266 1.21-8.411 3.468-11.946l-17.452 17.512c-5.421 5.434-8.401 12.667-8.391 20.347l.214 104.842c.02 7.68 3.031 14.892 8.482 20.316l74.376 73.982c5.431 5.405 12.642 8.38 20.31 8.38h.061l104.969-.214c7.689-.02 14.91-3.027 20.341-8.462l15.917-15.969c-2.888 1.352-6.061 2.073-9.316 2.083z" fill="#c7c2c9"/><g fill="#f5faff"><path d="m164.939 193.747c-10.375 0-20.109-4.134-26.709-11.343-2.46-2.69-2.274-6.88.414-9.342 1.221-1.118 2.807-1.733 4.462-1.733 1.851 0 3.63.783 4.88 2.147 4.04 4.414 10.377 7.049 16.953 7.049 6.717 0 11.453-4.082 12.15-8.029.988-5.582-6.623-8.823-8.978-9.683-9.74-3.559-18.268-7.322-18.626-7.479-.318-.141-.625-.307-.914-.493-6.208-4.007-9.416-11.051-8.37-18.381 1.123-7.866 6.922-14.273 15.135-16.723 2.782-.83 5.664-1.251 8.568-1.251 12.407 0 21.661 7.585 22.049 7.908 2.801 2.332 3.183 6.508.852 9.31-1.26 1.513-3.114 2.383-5.085 2.383-1.524 0-3.011-.534-4.191-1.503-.262-.208-6.208-4.866-13.625-4.866-1.644 0-3.254.232-4.787.69-4.695 1.4-5.637 4.607-5.826 5.92-.135.95-.213 3.343 1.982 5.07l.104.081.12.052c2.045.888 9.325 4.005 17.154 6.865 15.084 5.51 18.91 16.22 17.462 24.406-1.947 10.977-12.532 18.945-25.174 18.945z"/><path d="m221.351 193.708c-3.645 0-6.611-2.966-6.611-6.611v-55.352h-10.61c-3.645 0-6.611-2.966-6.611-6.611s2.966-6.611 6.611-6.611h34.579c3.645 0 6.611 2.966 6.611 6.611s-2.966 6.611-6.611 6.611h-10.748v55.352c.001 3.645-2.965 6.611-6.61 6.611z"/><path d="m332.787 193.747c-3.645 0-6.611-2.966-6.611-6.611v-62.04s-.274-6.612 6.612-6.612h17.506c13.62 0 24.701 10.819 24.701 24.118s-11.082 24.119-24.701 24.119c-2.293 0-6.299.017-9.884.036l-1.012.005v20.373c0 3.646-2.966 6.612-6.611 6.612zm6.633-61.02c.011 3.781.021 7.94.021 9.876 0 2.288.017 6.306.036 9.92l.005 1.017 1.017-.005c3.566-.018 7.519-.035 9.794-.035 6.222 0 11.479-4.991 11.479-10.898s-5.257-10.897-11.479-10.897h-10.875z"/><path d="m280.409 193.708c-20.75 0-37.631-16.864-37.631-37.592s16.881-37.592 37.631-37.592 37.631 16.864 37.631 37.592-16.881 37.592-37.631 37.592zm0-61.962c-13.459 0-24.409 10.932-24.409 24.37s10.951 24.37 24.409 24.37 24.409-10.932 24.409-24.37-10.95-24.37-24.409-24.37z"/></g></g></svg>